<svg xmlns="http://www.w3.org/2000/svg" viewBox="0 0 96 96" role="img" aria-label="Attack target">
  <defs>
    <linearGradient id="outerBlue" x1="20" y1="14" x2="77" y2="83" gradientUnits="userSpaceOnUse">
      <stop offset="0" stop-color="#a7d8e5"/>
      <stop offset="0.46" stop-color="#f5f3e8"/>
      <stop offset="0.48" stop-color="#2c5f86"/>
      <stop offset="1" stop-color="#163a5f"/>
    </linearGradient>
    <linearGradient id="face" x1="23" y1="20" x2="74" y2="78" gradientUnits="userSpaceOnUse">
      <stop offset="0" stop-color="#fff6df"/>
      <stop offset="1" stop-color="#f0ead8"/>
    </linearGradient>
    <linearGradient id="rim" x1="11" y1="8" x2="83" y2="88" gradientUnits="userSpaceOnUse">
      <stop offset="0" stop-color="#f8e9bc"/>
      <stop offset="0.38" stop-color="#fbf6e9"/>
      <stop offset="0.62" stop-color="#c2b594"/>
      <stop offset="1" stop-color="#6a7990"/>
    </linearGradient>
    <linearGradient id="scroll" x1="70" y1="41" x2="96" y2="58" gradientUnits="userSpaceOnUse">
      <stop offset="0" stop-color="#d39735"/>
      <stop offset="0.5" stop-color="#f3c268"/>
      <stop offset="1" stop-color="#bb7624"/>
    </linearGradient>
    <filter id="shadow" x="-20%" y="-20%" width="140%" height="145%">
      <feDropShadow dx="0" dy="5" stdDeviation="4" flood-color="#15231d" flood-opacity="0.32"/>
    </filter>
  </defs>

  <g filter="url(#shadow)">
    <path d="M70 43c8-3 16-2 23 3 2 1 2 5 0 7-7 5-15 6-23 3z" fill="url(#scroll)"/>
    <path d="M88 43c3 2 4 4 4 7 0 3-1 5-4 7 3-1 5-3 6-6 1-4-1-7-6-8z" fill="#8b5420" opacity="0.45"/>

    <circle cx="47" cy="48" r="38" fill="url(#rim)"/>
    <circle cx="47" cy="48" r="33" fill="url(#outerBlue)"/>
    <path d="M47 15a33 33 0 0 1 27 52L52 49z" fill="#1d5079" opacity="0.78"/>
    <path d="M47 15a33 33 0 0 0-27 52L42 49z" fill="#f7f4e8" opacity="0.74"/>

    <circle cx="47" cy="48" r="25" fill="url(#face)" stroke="#d33b24" stroke-width="4"/>
    <circle cx="47" cy="48" r="16" fill="none" stroke="#d33b24" stroke-width="4"/>
    <circle cx="47" cy="48" r="6" fill="#d33b24"/>

    <path d="M47 25v13M47 58v13M24 48h13M57 48h13" fill="none" stroke="#9f2619" stroke-width="4" stroke-linecap="round"/>
    <path d="M47 38v20M37 48h20" fill="none" stroke="#782016" stroke-width="2.4" stroke-linecap="round"/>
    <path d="M30 31a24 24 0 0 1 34 0" fill="none" stroke="#ffffff" stroke-width="4" stroke-linecap="round" opacity="0.58"/>
    <path d="M22 54a26 26 0 0 0 21 20" fill="none" stroke="#152b40" stroke-width="4" stroke-linecap="round" opacity="0.32"/>
  </g>
</svg>
