<svg xmlns="http://www.w3.org/2000/svg" viewBox="0 0 64 64">
  <path fill="#f7ead0" d="M4 32s10.8-17 28-17 28 17 28 17-10.8 17-28 17S4 32 4 32Z"/>
  <path fill="#255b4b" d="M32 51C13.8 51 2.8 34.2 2.3 33.5a2.8 2.8 0 0 1 0-3C2.8 29.8 13.8 13 32 13s29.2 16.8 29.7 17.5c.6.9.6 2.1 0 3C61.2 34.2 50.2 51 32 51ZM8.2 32C11.1 35.7 19.9 45.4 32 45.4S52.9 35.7 55.8 32C52.9 28.3 44.1 18.6 32 18.6S11.1 28.3 8.2 32Z"/>
  <circle cx="32" cy="32" r="13" fill="#b8862b"/>
  <circle cx="32" cy="32" r="8" fill="#1a4036"/>
  <circle cx="36" cy="27" r="3" fill="#fff8e8"/>
  <path fill="#8a5b1f" d="M30 6h4v10h-4zM16 9l3.4-2 5 8.7-3.5 2zM44.6 7l3.4 2-4.9 8.7-3.5-2z"/>
</svg>
